PathFileType	4	(X/Y/Z)	C:/Users/beibeiliu/ov580/test_trc\sequence.2_training_dense_right.trc
DataRate	CameraRate	NumFrames	NumMarkers	Units	OrigDataRate	OrigDataStartFrame	OrigNumFrames
120	120	19	19	mm	120	57	84
Frame#	Time	ThumbCMC			ThumbMCP			ThumbIP			ThumbTip			IndexMCP			IndexPIP			IndexTip			MiddleMCP			MiddlePIP			MiddleTip			RingMCP			RingPIP			RingTip			PinkyMCP			PinkyPIP			PinkyTip			BackHand1			BackHand2			BackHand3	
		X0	Y0	Z0	X1	Y1	Z1	X2	Y2	Z2	X3	Y3	Z3	X4	Y4	Z4	X5	Y5	Z5	X6	Y6	Z6	X7	Y7	Z7	X8	Y8	Z8	X9	Y9	Z9	X10	Y10	Z10	X11	Y11	Z11	X12	Y12	Z12	X13	Y13	Z13	X14	Y14	Z14	X15	Y15	Z15	X16	Y16	Z16	X17	Y17	Z17	X18	Y18	Z18	
56	0.466667	105.451	139.356	53.72	82.7418	162.358	57.8115	60.4088	167.195	58.423	37.5968	162.129	65.7904	46.9295	138.993	21.0735	29.6613	154.183	31.5486	42.6324	160.993	59.6588	36.9133	128.605	32.8553	23.3004	143.569	53.3643	48.3751	147.597	74.3943	36.2413	117.316	47.9747	30.4316	133.951	71.2905	53.9577	135.425	84.219	38.7301	106.324	60.0697	35.6411	121.697	79.7412	59.4217	127.925	88.2654	80.238	91.4692	46.2302	104.776	87.7683	55.8772	100.287	111.394	37.5175	
57	0.475	104.31	131.153	54.0402	87.2798	160.94	50.6349	66.6578	175.314	49.3391	47.5716	174.663	55.6889	51.9675	143.93	15.0295	35.4658	164.95	25.997	51.0775	167.006	52.508	34.0039	137.405	30.429	28.7841	161.748	48.8095	51.1694	155.576	68.7454	28.6001	128.011	47.1917	29.9357	150.376	63.9443	56.7013	147.005	75.6292	25.0918	120.399	60.911	32.102	139.844	71.6327	58.9856	137.84	82.2053	66.8816	93.5572	47.8018	83.8193	83.354	60.9841	89.8369	102.836	40.8873	
58	0.483333	98.0674	123.306	51.3729	92.0021	153.52	46.3068	77.1393	171.053	39.6703	51.0535	176.394	42.6413	52.7853	139.368	9.98914	45.3504	167.295	15.645	59.3342	167.355	40.8168	35.8283	137.784	22.0416	31.9778	165.104	39.5021	58.1382	157.38	57.9654	28.6251	135.052	36.0706	31.0983	156.443	54.8985	52.9623	150.614	67.3316	19.9989	126.327	53.1824	28.1254	147.765	63.0634	52.1213	143.99	74.2774	54.1876	92.4739	52.1133	72.7177	79.6277	68.4955	82.7993	95.4702	43.8122	
59	0.491667	96.1518	115.941	51.871	95.1057	145.443	35.8749	75.1827	156.962	25.1474	56.5844	167.424	22.5276	61.7154	126.918	-1.16358	52.0937	152.636	0.791796	62.5923	155.182	29.3756	39.3704	131.027	8.59953	38.3044	158.51	19.0833	56.3117	153.815	43.6135	27.1737	128.224	23.6482	31.6475	153.889	34.8843	49.8565	148.446	54.4017	18.6353	120.925	40.278	23.8985	145.681	44.442	46.4099	143.56	55.1314	49.808	90.7226	46.7212	65.5224	79.1537	71.5925	79.5251	87.3915	47.4163	
60	0.5	102.93	109.104	53.3194	96.1773	126.552	28.9021	85.7965	136.131	9.02229	63.9477	144.015	-3.05641	69.7509	97.6839	-6.82868	66.6058	125.72	-11.7248	76.1808	133.746	15.7359	53.4182	100.608	0.0189855	51.111	130.894	-4.57517	62.8704	134.731	29.7572	34.5643	107.089	9.87232	38.908	131.916	12.7887	54.3115	135.33	36.4279	23.5371	103.365	28.9469	33.1897	126.417	20.1611	47.0415	133.953	37.1	53.1584	78.2841	52.0502	64.6837	78.0624	77.9143	82.8028	77.7284	52.4869	
61	0.508333	108.296	95.2676	51.8708	108.126	106.488	23.0281	98.2297	103.681	-0.807988	79.0809	100.493	-12.8318	91.0525	59.4569	5.47465	80.2287	81.2397	-13.3022	88.5684	100.734	4.89378	66.782	62.5845	7.09442	66.6979	88.5587	-11.8165	75.5171	106.482	12.7161	54.0299	68.1214	10.8795	53.3669	90.2122	-1.10232	63.3148	109.334	18.4915	39.976	70.5648	23.1403	40.2746	87.8186	9.44438	60.4429	106.928	21.1657	63.5995	63.9316	59.8631	71.0174	74.656	84.7984	96.2577	67.8386	65.271	
62	0.516667	118.424	87.3503	55.0824	114.925	88.2729	24.0488	108.958	77.4249	-0.293084	96.0885	70.7608	-15.4081	107.659	38.1399	18.5444	99.4718	49.2646	-5.38928	102.904	78.4565	7.72594	86.6397	35.2769	11.9167	84.5077	55.4484	-8.06606	85.8227	82.9032	12.8132	69.2432	41.2441	20.8723	72.5049	62.256	-0.0711518	76.951	86.4464	16.8472	53.5511	45.0872	31.6118	58.621	58.1504	9.27406	72.3943	79.9295	14.9689	78.506	53.082	69.7549	78.6758	69.8092	91.5833	105.218	61.0385	72.6296	
63	0.525	128.781	84.3177	56.3994	127.185	80.3926	25.9939	126.192	69.5053	4.36175	114.252	55.5939	-13.7157	130.333	30.7877	26.1951	127.354	42.1286	-1.57045	116.267	67.1642	12.4176	111.6	24.682	22.3069	106.701	37.2252	-2.15829	99.7068	70.0782	14.1221	92.5589	26.5973	27.2369	89.8163	42.6233	4.59155	90.2064	67.8818	14.0613	76.4218	28.6814	35.747	80.9642	35.9464	14.1152	85.747	62.2999	11.188	95.8165	41.5927	73.349	91.5921	65.0847	93.0588	121.575	59.6579	77.3111	
64	0.533333	134.674	93.0481	61.8115	141.232	86.4562	25.9908	141.396	78.3275	6.87989	134.577	58.5797	-9.87434	160.427	41.3286	29.6076	151.041	49.5076	0.288013	134.268	70.4208	11.6809	143.999	30.213	23.1387	131.194	39.3842	-1.37526	119.885	67.728	9.63106	122.69	24.7215	26.8426	113.806	41.6388	2.50454	110.059	63.4469	11.9601	107.227	22.685	34.5211	106.721	31.7772	11.3825	102.71	56.1911	8.96907	116.061	39.4615	72.492	106.109	59.308	92.7139	134.079	64.269	80.3034	
65	0.541667	139.975	101.741	60.6122	143.644	98.6671	29.3185	149.718	92.3984	7.83518	147.581	75.8249	-9.19361	178.738	61.9103	27.8767	166.936	63.0799	-0.219921	146.706	80.1747	6.03506	166.221	42.7863	17.8229	153.784	52.3989	-4.40671	133.708	74.1882	5.67494	152.18	36.5137	21.1298	140.918	49.2018	0.967927	125.654	69.9209	12.2731	137.04	27.4347	29.1966	130.227	37.8052	7.36368	122.76	58.3934	8.67944	137.303	46.1162	71.6705	122.504	61.2721	90.2439	149.537	70.0469	79.1437	
66	0.55	137.201	112.162	60.0224	138.138	113.634	29.6195	147.568	110.606	4.53336	149.707	94.6646	-11.222	186.076	89.4872	20.4361	178.354	92.9186	-4.76097	146.706	99.2171	4.31838	180.844	71.2117	16.4067	164.934	75.275	-9.3335	136.313	85.1461	6.862	171.111	55.376	13.8027	151.687	65.5956	-4.20349	133.714	77.6855	8.44973	160.624	42.2236	24.5925	153.417	49.4051	4.39215	130.963	66.1498	6.70316	158.669	55.7314	65.309	138.961	63.1577	84.9283	155.35	86.1112	76.5062	
67	0.558333	128.77	120.31	59.735	127.935	123.379	28.5255	136.523	121.326	4.99321	140.056	113.28	-14.7017	180.509	118.057	16.4355	168.367	119.103	-8.62898	141.117	109.951	0.20025	181.134	102.115	7.12652	164.506	97.3142	-13.636	136.028	94.6866	1.40351	177.935	79.2694	12.8623	159.328	83.7324	-8.04708	135.295	86.0872	5.83592	172.849	61.3305	18.4682	158.406	72.2445	-2.24237	136.878	77.2909	4.53119	166.797	75.9045	61.8641	149.571	71.1264	83.6936	158.471	104.017	71.7487	
68	0.566667	119.107	122.282	58.3556	114.494	125.667	29.8092	116.015	131.325	2.87124	124.952	123.638	-17.8804	164.086	138.806	14.2638	154.339	134.96	-12.2827	128.056	122.209	-2.73764	172.504	121.773	1.00431	154.159	114.609	-17.182	128.963	102.59	0.247173	174.533	101.087	4.51602	152.586	101.147	-11.5472	129.012	95.607	6.55616	174.441	85.364	10.5282	159.663	88.6257	-5.16326	133.597	89.4787	6.95464	168.479	95.7097	56.6839	157.301	85.7265	76.0737	155.287	113.46	67.3564	
69	0.575	111.836	124.681	54.272	99.2237	126.228	28.6101	98.5837	131.45	1.15106	103.577	125.583	-17.4549	135.896	158.439	5.41109	124.241	148.685	-16.393	108.538	126.273	-5.40742	149.165	142.961	-2.87114	131.067	130.225	-21.9344	118.514	106.599	-1.5407	158.795	123.216	-1.16145	137.243	115.366	-15.4021	122.301	97.5856	3.49744	162.736	109.943	1.71741	147.776	100.319	-11.4851	127.906	94.1756	3.39201	165.117	115.948	46.6866	153.178	104.635	72.9554	139.927	128.365	64.8537	
70	0.583333	100.118	125.483	55.5692	86.014	123.989	26.8084	78.2756	126.506	2.59025	85.7326	122.163	-19.7745	114.06	162.01	-0.706341	99.8272	149.91	-19.2229	89.8897	123.549	-3.18158	130.051	149.063	-8.04638	110.625	135.408	-25.167	104.648	108.861	-6.06605	138.297	135.015	-6.09466	120.109	120.371	-19.3269	108.216	104.09	1.48415	148.346	122.886	-4.26687	130.447	108.597	-13.682	115.985	101.389	0.864764	152.63	130.562	38.8449	148.975	119.904	63.4909	131.144	140.844	59.2563	
71	0.591667	89.4273	127.134	55.5857	70.7807	119.036	32.0243	69.3835	117.405	5.60652	71.6509	111.415	-18.4278	92.7675	159.706	-0.610824	83.4193	141.754	-21.3212	74.9397	118.884	-9.01558	106.195	149.211	-12.4554	93.8411	130.217	-27.2829	88.1522	104.318	-3.6067	122.214	135.822	-10.6812	110.179	115.819	-21.1683	98.2119	98.5461	1.84858	137.51	124.612	-3.80516	120.627	113.622	-16.3295	107.639	99.6949	-2.97173	141.042	138.719	38.8468	139.614	128.021	65.909	116.593	143.057	58.394	
72	0.6	80.8414	123.475	61.4329	63.2675	111.887	33.9563	58.7617	106.903	11.1979	60.671	98.7459	-10.07	80.476	149.359	0.0317161	69.2458	129.881	-23.0111	66.4884	103.743	-12.4633	94.6669	141.004	-12.478	85.7754	118.577	-29.1809	78.9474	94.0341	-12.7828	111.572	132.243	-8.65916	96.6863	110.786	-21.8579	92.1399	88.428	-6.16905	127.264	123.674	-1.21627	112.189	107.515	-16.4392	99.8184	88.2432	-7.60032	128.037	140.142	37.7266	131.291	135.085	60.2597	101.966	146.606	53.3895	
73	0.608333	71.7684	117.499	61.1207	52.6409	101.007	42.2502	50.8663	94.0956	19.318	49.5426	86.5824	-0.93251	67.7452	134.849	-0.756359	56.7294	117.717	-21.0804	55.3344	91.0879	-22.1771	85.0392	129.909	-10.7315	79.3229	111.63	-29.2454	73.049	80.7707	-25.1536	103.463	123.148	-5.83176	96.6038	101.183	-25.7387	86.94	77.4015	-18.6477	123.157	114.599	1.35356	116.271	98.6837	-16.8245	100.091	78.7476	-18.8675	114.604	133.94	37.0184	119.843	132.14	64.996	91.9602	138.955	56.7456	
74	0.616667	66.8447	105.521	65.8873	50.8499	89.7496	44.4241	45.2139	81.2113	25.9973	43.9567	72.2224	5.42705	61.6631	116.448	1.25696	53.5841	99.6986	-20.764	54.3635	76.6605	-28.3192	80.4362	112.811	-8.9066	77.8944	95.0258	-29.7151	73.9174	70.0014	-38.2185	100.929	109.055	-2.84921	95.0799	87.5096	-25.5565	88.4005	69.8998	-30.3667	120.276	102.209	5.42291	116.016	87.257	-15.0336	104.873	71.1589	-24.5549	111.295	123.063	37.5571	113.669	124.024	67.6757	85.2408	129.614	53.9047	
